<svg id="Layer_1_1_" enable-background="new 0 0 64 64" height="512" viewBox="0 0 64 64" width="512" xmlns="http://www.w3.org/2000/svg"><path d="m37 8h-14v6c0 4.97058 4.02942 9 9 9s9-4.02942 9-9v-2z" fill="#f4b19d"/><path d="m41 12v-5c0-2.20917-1.79083-4-4-4h-14v5h14z" fill="#223b5a"/><path d="m46 58.35c0-1.34-1-2.47-2.33-2.63l-11.67-1.43 19.72-2.4 2.02-.25c.19-.02.38-.04.57-.04 2.55 0 4.69 2.08 4.69 4.7 0 2.6-2.1 4.7-4.7 4.7h-10.95c.73 0 1.39-.3 1.87-.78s.78-1.14.78-1.87z" fill="#5dc4dd"/><path d="m43.67 55.72c1.33.16 2.33 1.29 2.33 2.63 0 .73-.3 1.39-.78 1.87s-1.14.78-1.87.78h-22.7-10.95c-2.6 0-4.7-2.1-4.7-4.7 0-2.62 2.14-4.7 4.69-4.7.19 0 .38.02.57.04l2.02.25 13.27 1.62h.01l6.44.78z" fill="#5dc4dd"/><path d="m32 51.45-6.44 2.06h-.01l-13.27-1.62c-.8-.75-1.28-1.8-1.28-2.94v-11.95h7v10z" fill="#f4b19d"/><path d="m32 51.45 14-4.45v-10h7v11.95c0 1.14-.48 2.19-1.28 2.94l-19.72 2.4-6.44-.78z" fill="#f4b19d"/><path d="m46 37v10l-14 4.45-14-4.45v-10h-7v-6c0-4.42 3.58-8 8-8h26c4.42 0 8 3.58 8 8v6z" fill="#ded8d0"/><g fill="#f4b19d"><path d="m26 23 6 7 6-7z"/><path d="m43 14h-2v-4h2c1.10457 0 2 .89543 2 2 0 1.10457-.89543 2-2 2z"/><path d="m21 14h2v-4h-2c-1.10457 0-2 .89543-2 2 0 1.10457.89543 2 2 2z"/></g><path d="m5.91992 52.03906c-1.21972 1.08057-1.91992 2.63477-1.91992 4.26465 0 3.14111 2.55566 5.69629 5.69629 5.69629h10.9541 22.69727 10.95214c3.14356 0 5.7002-2.55713 5.7002-5.7002s-2.55273-5.69971-5.69043-5.69971c-.2052 0-.41351.02081-.63074.04327.19635-.5418.32117-1.11003.32117-1.69316v-17.9502c0-4.9624-4.03711-9-9-9h-7.02557c2.18646-1.63715 3.68933-4.13843 3.97485-7h1.05072c1.6543 0 3-1.3457 3-3s-1.3457-3-3-3h-1v-2c0-2.75684-2.24316-5-5-5h-14c-.55273 0-1 .44775-1 1v6h-1c-1.6543 0-3 1.3457-3 3s1.3457 3 3 3h1.05072c.28552 2.86157 1.78839 5.36285 3.97485 7h-7.02557c-4.96289 0-9 4.0376-9 9v17.9502c0 .58374.125 1.15265.32172 1.69495-1.59601-.17457-3.19818.3286-4.4018 1.39391zm48.38965.56104c2.03516 0 3.69043 1.65967 3.69043 3.6997 0 2.04053-1.66016 3.7002-3.7002 3.7002h-7.71326c.2555-.49835.41346-1.05438.41346-1.65186 0-1.84375-1.37988-3.40234-3.20996-3.625l-3.53809-.43146 13.59375-1.65692c.1543-.0166.30957-.03466.46387-.03466zm-41.5379-1.65973c-.49073-.55506-.77167-1.24597-.77167-1.99017v-10.9502h5v9c0 .43555.28223.82129.69727.95312l11.0174 3.50214-3.24548 1.03363zm33.53106-2.98725c.41504-.13183.69727-.51757.69727-.95312v-9h5v10.9502c0 .74347-.2804 1.43384-.7702 1.98853l-19.24097 2.34521-1.75311-.21375zm-10.47668-23.95312-3.82605 4.46338-3.82605-4.46338zm7.17395-13c.55176 0 1 .44873 1 1s-.44824 1-1 1h-1v-2zm-6-7c1.6543 0 3 1.3457 3 3v2.58594l-2.29297-2.29297c-.1875-.1875-.44141-.29297-.70703-.29297h-13v-3zm-17 8c0-.55127.44824-1 1-1h1v2h-1c-.55176 0-1-.44873-1-1zm4 2v-4-1h12.58594l3.41406 3.41406v1.58594c0 4.41113-3.58887 8-8 8s-8-3.58887-8-8zm-5 10h6.54047l5.70074 6.65088c.18945.22168.4668.34912.75879.34912s.56934-.12744.75879-.34912l5.70074-6.65088h6.54047c3.85938 0 7 3.14014 7 7v5h-5v-4h-2v14.26855l-12.98737 4.13629-13.01263-4.13629v-14.26855h-2v4h-5v-5c0-3.85986 3.14062-7 7-7zm24.54785 32.7085c.82813.10058 1.45215.80566 1.45215 1.63964 0 .91065-.74121 1.65186-1.65234 1.65186h-22.69727-10.9541c-2.03809 0-3.69629-1.6582-3.69629-3.69629 0-1.05762.4541-2.06592 1.24609-2.76709.67969-.60156 1.55273-.9292 2.45117-.9292.14844 0 .29688.00928.44629.02734z" fill="#1e191a"/><path d="m27.08594 12.41357-1.41406 1.41406c.75585.75587 1.75976 1.17237 2.82812 1.17237s2.07227-.4165 2.82812-1.17236l-1.41406-1.41406c-.75586.75585-2.07226.75585-2.82812-.00001z" fill="#1e191a"/><path d="m36.91406 12.41357c-.75586.75586-2.07227.75586-2.82812 0l-1.41406 1.41406c.75585.75587 1.75976 1.17237 2.82812 1.17237s2.07227-.4165 2.82812-1.17236z" fill="#1e191a"/></svg>